<?xml version="1.0" encoding="UTF-8" standalone="no"?>
<!DOCTYPE svg PUBLIC "-//W3C//DTD SVG 1.1//EN"
 "http://www.w3.org/Graphics/SVG/1.1/DTD/svg11.dtd">
<!-- Generated by graphviz version 2.43.0 (0)
 -->
<!-- Title: %3 Pages: 1 -->
<svg width="2565pt" height="612pt"
 viewBox="0.00 0.00 2565.00 612.00" xmlns="http://www.w3.org/2000/svg" xmlns:xlink="http://www.w3.org/1999/xlink">
<g id="graph0" class="graph" transform="scale(1 1) rotate(0) translate(4 608)">
<title>%3</title>
<polygon fill="white" stroke="transparent" points="-4,4 -4,-608 2561,-608 2561,4 -4,4"/>
<!-- 140422901911904 -->
<g id="node1" class="node">
<title>140422901911904</title>
<polygon fill="#e41a1c" stroke="black" stroke-width="0.5" points="677,-521 807.01,-521 807.01,-604 677,-604 677,-521"/>
<polygon fill="#377eb8" stroke="black" stroke-width="0.5" points="807.01,-521 928,-521 928,-604 807.01,-604 807.01,-521"/>
<polygon fill="none" stroke="black" points="928,-604 677,-604 677,-521 928,-521 928,-604"/>
<text text-anchor="middle" x="802.5" y="-588.8" font-family="Times,serif" font-size="14.00">e:0.52 p:0.48</text>
<text text-anchor="middle" x="802.5" y="-573.8" font-family="Times,serif" font-size="14.00">num_samples = 8124</text>
<text text-anchor="middle" x="802.5" y="-558.8" font-family="Times,serif" font-size="14.00">entropy = 0.9990678968724603</text>
<text text-anchor="middle" x="802.5" y="-543.8" font-family="Times,serif" font-size="14.00">gini = 0.49935405449893955</text>
<text text-anchor="middle" x="802.5" y="-528.8" font-family="Times,serif" font-size="14.00">split by: odor</text>
</g>
<!-- 140422951561248 -->
<g id="node2" class="node">
<title>140422951561248</title>
<polygon fill="#e41a1c" stroke="black" stroke-width="0.5" points="0,-394.5 161,-394.5 161,-462.5 0,-462.5 0,-394.5"/>
<polygon fill="none" stroke="black" points="161,-462.5 0,-462.5 0,-394.5 161,-394.5 161,-462.5"/>
<text text-anchor="middle" x="80.5" y="-447.3" font-family="Times,serif" font-size="14.00">e:1.00</text>
<text text-anchor="middle" x="80.5" y="-432.3" font-family="Times,serif" font-size="14.00">num_samples = 400</text>
<text text-anchor="middle" x="80.5" y="-417.3" font-family="Times,serif" font-size="14.00">entropy = &#45;0.0</text>
<text text-anchor="middle" x="80.5" y="-402.3" font-family="Times,serif" font-size="14.00">gini = 0.0</text>
</g>
<!-- 140422901911904&#45;&gt;140422951561248 -->
<g id="edge1" class="edge">
<title>140422901911904&#45;&gt;140422951561248</title>
<path fill="none" stroke="black" d="M676.86,-553.86C547.5,-543.57 341.18,-520.35 169.5,-470 165.67,-468.88 161.79,-467.62 157.91,-466.26"/>
<polygon fill="black" stroke="black" points="158.86,-462.88 148.26,-462.69 156.43,-469.44 158.86,-462.88"/>
<text text-anchor="middle" x="293" y="-491.8" font-family="Times,serif" font-size="14.00">a</text>
</g>
<!-- 140422952129248 -->
<g id="node3" class="node">
<title>140422952129248</title>
<polygon fill="#377eb8" stroke="black" stroke-width="0.5" points="179,-394.5 340,-394.5 340,-462.5 179,-462.5 179,-394.5"/>
<polygon fill="none" stroke="black" points="340,-462.5 179,-462.5 179,-394.5 340,-394.5 340,-462.5"/>
<text text-anchor="middle" x="259.5" y="-447.3" font-family="Times,serif" font-size="14.00">p:1.00</text>
<text text-anchor="middle" x="259.5" y="-432.3" font-family="Times,serif" font-size="14.00">num_samples = 192</text>
<text text-anchor="middle" x="259.5" y="-417.3" font-family="Times,serif" font-size="14.00">entropy = &#45;0.0</text>
<text text-anchor="middle" x="259.5" y="-402.3" font-family="Times,serif" font-size="14.00">gini = 0.0</text>
</g>
<!-- 140422901911904&#45;&gt;140422952129248 -->
<g id="edge2" class="edge">
<title>140422901911904&#45;&gt;140422952129248</title>
<path fill="none" stroke="black" d="M676.56,-543.82C584.58,-529.04 457.58,-504.75 349.5,-470 345.95,-468.86 342.35,-467.62 338.73,-466.3"/>
<polygon fill="black" stroke="black" points="339.75,-462.94 329.16,-462.67 337.27,-469.49 339.75,-462.94"/>
<text text-anchor="middle" x="463.5" y="-491.8" font-family="Times,serif" font-size="14.00">c</text>
</g>
<!-- 140422902403664 -->
<g id="node4" class="node">
<title>140422902403664</title>
<polygon fill="#377eb8" stroke="black" stroke-width="0.5" points="358.5,-394.5 528.5,-394.5 528.5,-462.5 358.5,-462.5 358.5,-394.5"/>
<polygon fill="none" stroke="black" points="528.5,-462.5 358.5,-462.5 358.5,-394.5 528.5,-394.5 528.5,-462.5"/>
<text text-anchor="middle" x="443.5" y="-447.3" font-family="Times,serif" font-size="14.00">p:1.00</text>
<text text-anchor="middle" x="443.5" y="-432.3" font-family="Times,serif" font-size="14.00">num_samples = 2160</text>
<text text-anchor="middle" x="443.5" y="-417.3" font-family="Times,serif" font-size="14.00">entropy = &#45;0.0</text>
<text text-anchor="middle" x="443.5" y="-402.3" font-family="Times,serif" font-size="14.00">gini = 0.0</text>
</g>
<!-- 140422901911904&#45;&gt;140422902403664 -->
<g id="edge3" class="edge">
<title>140422901911904&#45;&gt;140422902403664</title>
<path fill="none" stroke="black" d="M678.78,-520.91C634,-505.66 583.23,-487.72 537.5,-470 534.48,-468.83 531.41,-467.62 528.31,-466.38"/>
<polygon fill="black" stroke="black" points="529.56,-463.11 518.97,-462.6 526.93,-469.6 529.56,-463.11"/>
<text text-anchor="middle" x="627.5" y="-491.8" font-family="Times,serif" font-size="14.00">f</text>
</g>
<!-- 140422902384528 -->
<g id="node5" class="node">
<title>140422902384528</title>
<polygon fill="#e41a1c" stroke="black" stroke-width="0.5" points="547,-394.5 708,-394.5 708,-462.5 547,-462.5 547,-394.5"/>
<polygon fill="none" stroke="black" points="708,-462.5 547,-462.5 547,-394.5 708,-394.5 708,-462.5"/>
<text text-anchor="middle" x="627.5" y="-447.3" font-family="Times,serif" font-size="14.00">e:1.00</text>
<text text-anchor="middle" x="627.5" y="-432.3" font-family="Times,serif" font-size="14.00">num_samples = 400</text>
<text text-anchor="middle" x="627.5" y="-417.3" font-family="Times,serif" font-size="14.00">entropy = &#45;0.0</text>
<text text-anchor="middle" x="627.5" y="-402.3" font-family="Times,serif" font-size="14.00">gini = 0.0</text>
</g>
<!-- 140422901911904&#45;&gt;140422902384528 -->
<g id="edge4" class="edge">
<title>140422901911904&#45;&gt;140422902384528</title>
<path fill="none" stroke="black" d="M748.57,-520.82C726.57,-504.23 701.24,-485.12 679.45,-468.69"/>
<polygon fill="black" stroke="black" points="681.38,-465.76 671.29,-462.53 677.16,-471.35 681.38,-465.76"/>
<text text-anchor="middle" x="723" y="-491.8" font-family="Times,serif" font-size="14.00">l</text>
</g>
<!-- 140422901813104 -->
<g id="node6" class="node">
<title>140422901813104</title>
<polygon fill="#377eb8" stroke="black" stroke-width="0.5" points="726.5,-394.5 878.5,-394.5 878.5,-462.5 726.5,-462.5 726.5,-394.5"/>
<polygon fill="none" stroke="black" points="878.5,-462.5 726.5,-462.5 726.5,-394.5 878.5,-394.5 878.5,-462.5"/>
<text text-anchor="middle" x="802.5" y="-447.3" font-family="Times,serif" font-size="14.00">p:1.00</text>
<text text-anchor="middle" x="802.5" y="-432.3" font-family="Times,serif" font-size="14.00">num_samples = 36</text>
<text text-anchor="middle" x="802.5" y="-417.3" font-family="Times,serif" font-size="14.00">entropy = &#45;0.0</text>
<text text-anchor="middle" x="802.5" y="-402.3" font-family="Times,serif" font-size="14.00">gini = 0.0</text>
</g>
<!-- 140422901911904&#45;&gt;140422901813104 -->
<g id="edge5" class="edge">
<title>140422901911904&#45;&gt;140422901813104</title>
<path fill="none" stroke="black" d="M802.5,-520.82C802.5,-505.68 802.5,-488.44 802.5,-473.05"/>
<polygon fill="black" stroke="black" points="806,-472.74 802.5,-462.74 799,-472.74 806,-472.74"/>
<text text-anchor="middle" x="809.5" y="-491.8" font-family="Times,serif" font-size="14.00">m</text>
</g>
<!-- 140422901811568 -->
<g id="node7" class="node">
<title>140422901811568</title>
<polygon fill="#e41a1c" stroke="black" stroke-width="0.5" points="897,-387 1139.46,-387 1139.46,-470 897,-470 897,-387"/>
<polygon fill="#377eb8" stroke="black" stroke-width="0.5" points="1139.46,-387 1148,-387 1148,-470 1139.46,-470 1139.46,-387"/>
<polygon fill="none" stroke="black" points="1148,-470 897,-470 897,-387 1148,-387 1148,-470"/>
<text text-anchor="middle" x="1022.5" y="-454.8" font-family="Times,serif" font-size="14.00">e:0.97 p:0.03</text>
<text text-anchor="middle" x="1022.5" y="-439.8" font-family="Times,serif" font-size="14.00">num_samples = 3528</text>
<text text-anchor="middle" x="1022.5" y="-424.8" font-family="Times,serif" font-size="14.00">entropy = 0.2141367567812511</text>
<text text-anchor="middle" x="1022.5" y="-409.8" font-family="Times,serif" font-size="14.00">gini = 0.06571336017400164</text>
<text text-anchor="middle" x="1022.5" y="-394.8" font-family="Times,serif" font-size="14.00">split by: spore&#45;print&#45;color</text>
</g>
<!-- 140422901911904&#45;&gt;140422901811568 -->
<g id="edge30" class="edge">
<title>140422901911904&#45;&gt;140422901811568</title>
<path fill="none" stroke="black" d="M870,-521C894.07,-506.56 921.34,-490.19 946.1,-475.34"/>
<polygon fill="black" stroke="black" points="947.97,-478.3 954.75,-470.15 944.37,-472.3 947.97,-478.3"/>
<text text-anchor="middle" x="924.5" y="-491.8" font-family="Times,serif" font-size="14.00">n</text>
</g>
<!-- 140423856423888 -->
<g id="node32" class="node">
<title>140423856423888</title>
<polygon fill="#377eb8" stroke="black" stroke-width="0.5" points="1166,-394.5 1327,-394.5 1327,-462.5 1166,-462.5 1166,-394.5"/>
<polygon fill="none" stroke="black" points="1327,-462.5 1166,-462.5 1166,-394.5 1327,-394.5 1327,-462.5"/>
<text text-anchor="middle" x="1246.5" y="-447.3" font-family="Times,serif" font-size="14.00">p:1.00</text>
<text text-anchor="middle" x="1246.5" y="-432.3" font-family="Times,serif" font-size="14.00">num_samples = 256</text>
<text text-anchor="middle" x="1246.5" y="-417.3" font-family="Times,serif" font-size="14.00">entropy = &#45;0.0</text>
<text text-anchor="middle" x="1246.5" y="-402.3" font-family="Times,serif" font-size="14.00">gini = 0.0</text>
</g>
<!-- 140422901911904&#45;&gt;140423856423888 -->
<g id="edge31" class="edge">
<title>140422901911904&#45;&gt;140423856423888</title>
<path fill="none" stroke="black" d="M928.15,-534.52C996.52,-518.47 1082.09,-496.15 1156.5,-470 1159.75,-468.86 1163.05,-467.65 1166.36,-466.38"/>
<polygon fill="black" stroke="black" points="1167.7,-469.61 1175.72,-462.69 1165.13,-463.1 1167.7,-469.61"/>
<text text-anchor="middle" x="1105.5" y="-491.8" font-family="Times,serif" font-size="14.00">p</text>
</g>
<!-- 140423856423312 -->
<g id="node33" class="node">
<title>140423856423312</title>
<polygon fill="#377eb8" stroke="black" stroke-width="0.5" points="1345,-394.5 1506,-394.5 1506,-462.5 1345,-462.5 1345,-394.5"/>
<polygon fill="none" stroke="black" points="1506,-462.5 1345,-462.5 1345,-394.5 1506,-394.5 1506,-462.5"/>
<text text-anchor="middle" x="1425.5" y="-447.3" font-family="Times,serif" font-size="14.00">p:1.00</text>
<text text-anchor="middle" x="1425.5" y="-432.3" font-family="Times,serif" font-size="14.00">num_samples = 576</text>
<text text-anchor="middle" x="1425.5" y="-417.3" font-family="Times,serif" font-size="14.00">entropy = &#45;0.0</text>
<text text-anchor="middle" x="1425.5" y="-402.3" font-family="Times,serif" font-size="14.00">gini = 0.0</text>
</g>
<!-- 140422901911904&#45;&gt;140423856423312 -->
<g id="edge32" class="edge">
<title>140422901911904&#45;&gt;140423856423312</title>
<path fill="none" stroke="black" d="M928.16,-549.01C1037.5,-536.01 1199.35,-511.58 1335.5,-470 1339.26,-468.85 1343.08,-467.58 1346.9,-466.22"/>
<polygon fill="black" stroke="black" points="1348.25,-469.45 1356.4,-462.68 1345.81,-462.89 1348.25,-469.45"/>
<text text-anchor="middle" x="1269.5" y="-491.8" font-family="Times,serif" font-size="14.00">s</text>
</g>
<!-- 140423856424944 -->
<g id="node34" class="node">
<title>140423856424944</title>
<polygon fill="#377eb8" stroke="black" stroke-width="0.5" points="1524,-394.5 1685,-394.5 1685,-462.5 1524,-462.5 1524,-394.5"/>
<polygon fill="none" stroke="black" points="1685,-462.5 1524,-462.5 1524,-394.5 1685,-394.5 1685,-462.5"/>
<text text-anchor="middle" x="1604.5" y="-447.3" font-family="Times,serif" font-size="14.00">p:1.00</text>
<text text-anchor="middle" x="1604.5" y="-432.3" font-family="Times,serif" font-size="14.00">num_samples = 576</text>
<text text-anchor="middle" x="1604.5" y="-417.3" font-family="Times,serif" font-size="14.00">entropy = &#45;0.0</text>
<text text-anchor="middle" x="1604.5" y="-402.3" font-family="Times,serif" font-size="14.00">gini = 0.0</text>
</g>
<!-- 140422901911904&#45;&gt;140423856424944 -->
<g id="edge33" class="edge">
<title>140422901911904&#45;&gt;140423856424944</title>
<path fill="none" stroke="black" d="M928.32,-556.91C1072.45,-549.01 1314.51,-527.64 1514.5,-470 1518.57,-468.83 1522.7,-467.5 1526.84,-466.06"/>
<polygon fill="black" stroke="black" points="1528.29,-469.26 1536.47,-462.53 1525.87,-462.69 1528.29,-469.26"/>
<text text-anchor="middle" x="1444" y="-491.8" font-family="Times,serif" font-size="14.00">y</text>
</g>
<!-- 140423856018816 -->
<g id="node8" class="node">
<title>140423856018816</title>
<polygon fill="#e41a1c" stroke="black" stroke-width="0.5" points="319.5,-260.5 471.5,-260.5 471.5,-328.5 319.5,-328.5 319.5,-260.5"/>
<polygon fill="none" stroke="black" points="471.5,-328.5 319.5,-328.5 319.5,-260.5 471.5,-260.5 471.5,-328.5"/>
<text text-anchor="middle" x="395.5" y="-313.3" font-family="Times,serif" font-size="14.00">e:1.00</text>
<text text-anchor="middle" x="395.5" y="-298.3" font-family="Times,serif" font-size="14.00">num_samples = 48</text>
<text text-anchor="middle" x="395.5" y="-283.3" font-family="Times,serif" font-size="14.00">entropy = &#45;0.0</text>
<text text-anchor="middle" x="395.5" y="-268.3" font-family="Times,serif" font-size="14.00">gini = 0.0</text>
</g>
<!-- 140422901811568&#45;&gt;140423856018816 -->
<g id="edge6" class="edge">
<title>140422901811568&#45;&gt;140423856018816</title>
<path fill="none" stroke="black" d="M896.95,-388.96C893.77,-388.27 890.62,-387.61 887.5,-387 805.57,-370.93 783.37,-379.2 700.5,-369 602.37,-356.93 575.05,-364.91 480.5,-336 476.93,-334.91 473.32,-333.69 469.7,-332.37"/>
<polygon fill="black" stroke="black" points="470.74,-329.02 460.15,-328.69 468.22,-335.55 470.74,-329.02"/>
<text text-anchor="middle" x="705.5" y="-357.8" font-family="Times,serif" font-size="14.00">b</text>
</g>
<!-- 140423856017712 -->
<g id="node9" class="node">
<title>140423856017712</title>
<polygon fill="#e41a1c" stroke="black" stroke-width="0.5" points="489.5,-260.5 641.5,-260.5 641.5,-328.5 489.5,-328.5 489.5,-260.5"/>
<polygon fill="none" stroke="black" points="641.5,-328.5 489.5,-328.5 489.5,-260.5 641.5,-260.5 641.5,-328.5"/>
<text text-anchor="middle" x="565.5" y="-313.3" font-family="Times,serif" font-size="14.00">e:1.00</text>
<text text-anchor="middle" x="565.5" y="-298.3" font-family="Times,serif" font-size="14.00">num_samples = 48</text>
<text text-anchor="middle" x="565.5" y="-283.3" font-family="Times,serif" font-size="14.00">entropy = &#45;0.0</text>
<text text-anchor="middle" x="565.5" y="-268.3" font-family="Times,serif" font-size="14.00">gini = 0.0</text>
</g>
<!-- 140422901811568&#45;&gt;140423856017712 -->
<g id="edge7" class="edge">
<title>140422901811568&#45;&gt;140423856017712</title>
<path fill="none" stroke="black" d="M896.84,-389.44C893.7,-388.61 890.58,-387.79 887.5,-387 783.15,-360.17 752.49,-370.74 650.5,-336 647.23,-334.89 643.92,-333.68 640.6,-332.4"/>
<polygon fill="black" stroke="black" points="641.82,-329.12 631.23,-328.64 639.21,-335.62 641.82,-329.12"/>
<text text-anchor="middle" x="802.5" y="-357.8" font-family="Times,serif" font-size="14.00">h</text>
</g>
<!-- 140423856019440 -->
<g id="node10" class="node">
<title>140423856019440</title>
<polygon fill="#e41a1c" stroke="black" stroke-width="0.5" points="659.5,-260.5 829.5,-260.5 829.5,-328.5 659.5,-328.5 659.5,-260.5"/>
<polygon fill="none" stroke="black" points="829.5,-328.5 659.5,-328.5 659.5,-260.5 829.5,-260.5 829.5,-328.5"/>
<text text-anchor="middle" x="744.5" y="-313.3" font-family="Times,serif" font-size="14.00">e:1.00</text>
<text text-anchor="middle" x="744.5" y="-298.3" font-family="Times,serif" font-size="14.00">num_samples = 1296</text>
<text text-anchor="middle" x="744.5" y="-283.3" font-family="Times,serif" font-size="14.00">entropy = &#45;0.0</text>
<text text-anchor="middle" x="744.5" y="-268.3" font-family="Times,serif" font-size="14.00">gini = 0.0</text>
</g>
<!-- 140422901811568&#45;&gt;140423856019440 -->
<g id="edge8" class="edge">
<title>140422901811568&#45;&gt;140423856019440</title>
<path fill="none" stroke="black" d="M937.2,-387C901.01,-369.82 859.08,-349.91 823.6,-333.06"/>
<polygon fill="black" stroke="black" points="824.78,-329.74 814.25,-328.62 821.78,-336.07 824.78,-329.74"/>
<text text-anchor="middle" x="897" y="-357.8" font-family="Times,serif" font-size="14.00">k</text>
</g>
<!-- 140423856019680 -->
<g id="node11" class="node">
<title>140423856019680</title>
<polygon fill="#e41a1c" stroke="black" stroke-width="0.5" points="847.5,-260.5 1017.5,-260.5 1017.5,-328.5 847.5,-328.5 847.5,-260.5"/>
<polygon fill="none" stroke="black" points="1017.5,-328.5 847.5,-328.5 847.5,-260.5 1017.5,-260.5 1017.5,-328.5"/>
<text text-anchor="middle" x="932.5" y="-313.3" font-family="Times,serif" font-size="14.00">e:1.00</text>
<text text-anchor="middle" x="932.5" y="-298.3" font-family="Times,serif" font-size="14.00">num_samples = 1344</text>
<text text-anchor="middle" x="932.5" y="-283.3" font-family="Times,serif" font-size="14.00">entropy = &#45;0.0</text>
<text text-anchor="middle" x="932.5" y="-268.3" font-family="Times,serif" font-size="14.00">gini = 0.0</text>
</g>
<!-- 140422901811568&#45;&gt;140423856019680 -->
<g id="edge9" class="edge">
<title>140422901811568&#45;&gt;140423856019680</title>
<path fill="none" stroke="black" d="M994.76,-386.82C984.04,-371.1 971.78,-353.11 960.99,-337.29"/>
<polygon fill="black" stroke="black" points="963.69,-335.03 955.17,-328.74 957.91,-338.98 963.69,-335.03"/>
<text text-anchor="middle" x="985.5" y="-357.8" font-family="Times,serif" font-size="14.00">n</text>
</g>
<!-- 140423856019296 -->
<g id="node12" class="node">
<title>140423856019296</title>
<polygon fill="#e41a1c" stroke="black" stroke-width="0.5" points="1035.5,-260.5 1187.5,-260.5 1187.5,-328.5 1035.5,-328.5 1035.5,-260.5"/>
<polygon fill="none" stroke="black" points="1187.5,-328.5 1035.5,-328.5 1035.5,-260.5 1187.5,-260.5 1187.5,-328.5"/>
<text text-anchor="middle" x="1111.5" y="-313.3" font-family="Times,serif" font-size="14.00">e:1.00</text>
<text text-anchor="middle" x="1111.5" y="-298.3" font-family="Times,serif" font-size="14.00">num_samples = 48</text>
<text text-anchor="middle" x="1111.5" y="-283.3" font-family="Times,serif" font-size="14.00">entropy = &#45;0.0</text>
<text text-anchor="middle" x="1111.5" y="-268.3" font-family="Times,serif" font-size="14.00">gini = 0.0</text>
</g>
<!-- 140422901811568&#45;&gt;140423856019296 -->
<g id="edge10" class="edge">
<title>140422901811568&#45;&gt;140423856019296</title>
<path fill="none" stroke="black" d="M1049.93,-386.82C1060.53,-371.1 1072.66,-353.11 1083.33,-337.29"/>
<polygon fill="black" stroke="black" points="1086.4,-338.99 1089.09,-328.74 1080.59,-335.08 1086.4,-338.99"/>
<text text-anchor="middle" x="1075" y="-357.8" font-family="Times,serif" font-size="14.00">o</text>
</g>
<!-- 140423856020112 -->
<g id="node13" class="node">
<title>140423856020112</title>
<polygon fill="#377eb8" stroke="black" stroke-width="0.5" points="1205.5,-260.5 1357.5,-260.5 1357.5,-328.5 1205.5,-328.5 1205.5,-260.5"/>
<polygon fill="none" stroke="black" points="1357.5,-328.5 1205.5,-328.5 1205.5,-260.5 1357.5,-260.5 1357.5,-328.5"/>
<text text-anchor="middle" x="1281.5" y="-313.3" font-family="Times,serif" font-size="14.00">p:1.00</text>
<text text-anchor="middle" x="1281.5" y="-298.3" font-family="Times,serif" font-size="14.00">num_samples = 72</text>
<text text-anchor="middle" x="1281.5" y="-283.3" font-family="Times,serif" font-size="14.00">entropy = &#45;0.0</text>
<text text-anchor="middle" x="1281.5" y="-268.3" font-family="Times,serif" font-size="14.00">gini = 0.0</text>
</g>
<!-- 140422901811568&#45;&gt;140423856020112 -->
<g id="edge11" class="edge">
<title>140422901811568&#45;&gt;140423856020112</title>
<path fill="none" stroke="black" d="M1101.97,-387C1135.54,-369.89 1174.41,-350.08 1207.39,-333.27"/>
<polygon fill="black" stroke="black" points="1209.2,-336.28 1216.52,-328.62 1206.02,-330.04 1209.2,-336.28"/>
<text text-anchor="middle" x="1164" y="-357.8" font-family="Times,serif" font-size="14.00">r</text>
</g>
<!-- 140423856018096 -->
<g id="node14" class="node">
<title>140423856018096</title>
<polygon fill="#e41a1c" stroke="black" stroke-width="0.5" points="1375.5,-253 1615.5,-253 1615.5,-336 1375.5,-336 1375.5,-253"/>
<polygon fill="#377eb8" stroke="black" stroke-width="0.5" points="1615.5,-253 1635.5,-253 1635.5,-336 1615.5,-336 1615.5,-253"/>
<polygon fill="none" stroke="black" points="1635.5,-336 1375.5,-336 1375.5,-253 1635.5,-253 1635.5,-336"/>
<text text-anchor="middle" x="1505.5" y="-320.8" font-family="Times,serif" font-size="14.00">e:0.92 p:0.08</text>
<text text-anchor="middle" x="1505.5" y="-305.8" font-family="Times,serif" font-size="14.00">num_samples = 624</text>
<text text-anchor="middle" x="1505.5" y="-290.8" font-family="Times,serif" font-size="14.00">entropy = 0.39124356362925566</text>
<text text-anchor="middle" x="1505.5" y="-275.8" font-family="Times,serif" font-size="14.00">gini = 0.14201183431952646</text>
<text text-anchor="middle" x="1505.5" y="-260.8" font-family="Times,serif" font-size="14.00">split by: cap&#45;color</text>
</g>
<!-- 140422901811568&#45;&gt;140423856018096 -->
<g id="edge28" class="edge">
<title>140422901811568&#45;&gt;140423856018096</title>
<path fill="none" stroke="black" d="M1148.33,-389.25C1151.08,-388.48 1153.8,-387.73 1156.5,-387 1246.09,-362.6 1272,-360.87 1365.46,-336.24"/>
<polygon fill="black" stroke="black" points="1366.56,-339.57 1375.33,-333.62 1364.77,-332.8 1366.56,-339.57"/>
<text text-anchor="middle" x="1301" y="-357.8" font-family="Times,serif" font-size="14.00">w</text>
</g>
<!-- 140423856446816 -->
<g id="node31" class="node">
<title>140423856446816</title>
<polygon fill="#e41a1c" stroke="black" stroke-width="0.5" points="1653.5,-260.5 1805.5,-260.5 1805.5,-328.5 1653.5,-328.5 1653.5,-260.5"/>
<polygon fill="none" stroke="black" points="1805.5,-328.5 1653.5,-328.5 1653.5,-260.5 1805.5,-260.5 1805.5,-328.5"/>
<text text-anchor="middle" x="1729.5" y="-313.3" font-family="Times,serif" font-size="14.00">e:1.00</text>
<text text-anchor="middle" x="1729.5" y="-298.3" font-family="Times,serif" font-size="14.00">num_samples = 48</text>
<text text-anchor="middle" x="1729.5" y="-283.3" font-family="Times,serif" font-size="14.00">entropy = &#45;0.0</text>
<text text-anchor="middle" x="1729.5" y="-268.3" font-family="Times,serif" font-size="14.00">gini = 0.0</text>
</g>
<!-- 140422901811568&#45;&gt;140423856446816 -->
<g id="edge29" class="edge">
<title>140422901811568&#45;&gt;140423856446816</title>
<path fill="none" stroke="black" d="M1148.22,-388.75C1151,-388.14 1153.76,-387.55 1156.5,-387 1263.39,-365.46 1539.54,-365.54 1644.5,-336 1648.48,-334.88 1652.51,-333.58 1656.53,-332.16"/>
<polygon fill="black" stroke="black" points="1657.77,-335.43 1665.89,-328.62 1655.29,-328.88 1657.77,-335.43"/>
<text text-anchor="middle" x="1529" y="-357.8" font-family="Times,serif" font-size="14.00">y</text>
</g>
<!-- 140423856327360 -->
<g id="node15" class="node">
<title>140423856327360</title>
<polygon fill="#e41a1c" stroke="black" stroke-width="0.5" points="849.5,-126.5 1001.5,-126.5 1001.5,-194.5 849.5,-194.5 849.5,-126.5"/>
<polygon fill="none" stroke="black" points="1001.5,-194.5 849.5,-194.5 849.5,-126.5 1001.5,-126.5 1001.5,-194.5"/>
<text text-anchor="middle" x="925.5" y="-179.3" font-family="Times,serif" font-size="14.00">e:1.00</text>
<text text-anchor="middle" x="925.5" y="-164.3" font-family="Times,serif" font-size="14.00">num_samples = 48</text>
<text text-anchor="middle" x="925.5" y="-149.3" font-family="Times,serif" font-size="14.00">entropy = &#45;0.0</text>
<text text-anchor="middle" x="925.5" y="-134.3" font-family="Times,serif" font-size="14.00">gini = 0.0</text>
</g>
<!-- 140423856018096&#45;&gt;140423856327360 -->
<g id="edge12" class="edge">
<title>140423856018096&#45;&gt;140423856327360</title>
<path fill="none" stroke="black" d="M1375.44,-254.93C1372.44,-254.26 1369.45,-253.61 1366.5,-253 1303.78,-240 1286.94,-243.9 1223.5,-235 1128.63,-221.68 1102.04,-230.23 1010.5,-202 1006.93,-200.9 1003.32,-199.67 999.71,-198.35"/>
<polygon fill="black" stroke="black" points="1000.75,-195 990.16,-194.65 998.22,-201.53 1000.75,-195"/>
<text text-anchor="middle" x="1228.5" y="-223.8" font-family="Times,serif" font-size="14.00">b</text>
</g>
<!-- 140423856325680 -->
<g id="node16" class="node">
<title>140423856325680</title>
<polygon fill="#e41a1c" stroke="black" stroke-width="0.5" points="1019.5,-126.5 1171.5,-126.5 1171.5,-194.5 1019.5,-194.5 1019.5,-126.5"/>
<polygon fill="none" stroke="black" points="1171.5,-194.5 1019.5,-194.5 1019.5,-126.5 1171.5,-126.5 1171.5,-194.5"/>
<text text-anchor="middle" x="1095.5" y="-179.3" font-family="Times,serif" font-size="14.00">e:1.00</text>
<text text-anchor="middle" x="1095.5" y="-164.3" font-family="Times,serif" font-size="14.00">num_samples = 32</text>
<text text-anchor="middle" x="1095.5" y="-149.3" font-family="Times,serif" font-size="14.00">entropy = &#45;0.0</text>
<text text-anchor="middle" x="1095.5" y="-134.3" font-family="Times,serif" font-size="14.00">gini = 0.0</text>
</g>
<!-- 140423856018096&#45;&gt;140423856325680 -->
<g id="edge13" class="edge">
<title>140423856018096&#45;&gt;140423856325680</title>
<path fill="none" stroke="black" d="M1375.3,-255.5C1372.34,-254.65 1369.4,-253.82 1366.5,-253 1284.02,-229.68 1260.84,-231.89 1180.5,-202 1177.61,-200.92 1174.68,-199.79 1171.73,-198.6"/>
<polygon fill="black" stroke="black" points="1172.88,-195.29 1162.3,-194.68 1170.19,-201.75 1172.88,-195.29"/>
<text text-anchor="middle" x="1296.5" y="-223.8" font-family="Times,serif" font-size="14.00">c</text>
</g>
<!-- 140423856325488 -->
<g id="node17" class="node">
<title>140423856325488</title>
<polygon fill="#e41a1c" stroke="black" stroke-width="0.5" points="1189.5,-126.5 1341.5,-126.5 1341.5,-194.5 1189.5,-194.5 1189.5,-126.5"/>
<polygon fill="none" stroke="black" points="1341.5,-194.5 1189.5,-194.5 1189.5,-126.5 1341.5,-126.5 1341.5,-194.5"/>
<text text-anchor="middle" x="1265.5" y="-179.3" font-family="Times,serif" font-size="14.00">e:1.00</text>
<text text-anchor="middle" x="1265.5" y="-164.3" font-family="Times,serif" font-size="14.00">num_samples = 48</text>
<text text-anchor="middle" x="1265.5" y="-149.3" font-family="Times,serif" font-size="14.00">entropy = &#45;0.0</text>
<text text-anchor="middle" x="1265.5" y="-134.3" font-family="Times,serif" font-size="14.00">gini = 0.0</text>
</g>
<!-- 140423856018096&#45;&gt;140423856325488 -->
<g id="edge14" class="edge">
<title>140423856018096&#45;&gt;140423856325488</title>
<path fill="none" stroke="black" d="M1431.86,-253C1400.88,-235.96 1365.04,-216.25 1334.57,-199.49"/>
<polygon fill="black" stroke="black" points="1336.16,-196.37 1325.71,-194.62 1332.79,-202.5 1336.16,-196.37"/>
<text text-anchor="middle" x="1398" y="-223.8" font-family="Times,serif" font-size="14.00">e</text>
</g>
<!-- 140423856326208 -->
<g id="node18" class="node">
<title>140423856326208</title>
<polygon fill="#e41a1c" stroke="black" stroke-width="0.5" points="1360,-126.5 1521,-126.5 1521,-194.5 1360,-194.5 1360,-126.5"/>
<polygon fill="none" stroke="black" points="1521,-194.5 1360,-194.5 1360,-126.5 1521,-126.5 1521,-194.5"/>
<text text-anchor="middle" x="1440.5" y="-179.3" font-family="Times,serif" font-size="14.00">e:1.00</text>
<text text-anchor="middle" x="1440.5" y="-164.3" font-family="Times,serif" font-size="14.00">num_samples = 152</text>
<text text-anchor="middle" x="1440.5" y="-149.3" font-family="Times,serif" font-size="14.00">entropy = &#45;0.0</text>
<text text-anchor="middle" x="1440.5" y="-134.3" font-family="Times,serif" font-size="14.00">gini = 0.0</text>
</g>
<!-- 140423856018096&#45;&gt;140423856326208 -->
<g id="edge15" class="edge">
<title>140423856018096&#45;&gt;140423856326208</title>
<path fill="none" stroke="black" d="M1485.47,-252.82C1477.8,-237.24 1469.03,-219.45 1461.29,-203.73"/>
<polygon fill="black" stroke="black" points="1464.43,-202.17 1456.87,-194.74 1458.15,-205.26 1464.43,-202.17"/>
<text text-anchor="middle" x="1480.5" y="-223.8" font-family="Times,serif" font-size="14.00">g</text>
</g>
<!-- 140423856326928 -->
<g id="node19" class="node">
<title>140423856326928</title>
<polygon fill="#e41a1c" stroke="black" stroke-width="0.5" points="1539,-119 1754.14,-119 1754.14,-202 1539,-202 1539,-119"/>
<polygon fill="#377eb8" stroke="black" stroke-width="0.5" points="1754.14,-119 1790,-119 1790,-202 1754.14,-202 1754.14,-119"/>
<polygon fill="none" stroke="black" points="1790,-202 1539,-202 1539,-119 1790,-119 1790,-202"/>
<text text-anchor="middle" x="1664.5" y="-186.8" font-family="Times,serif" font-size="14.00">e:0.86 p:0.14</text>
<text text-anchor="middle" x="1664.5" y="-171.8" font-family="Times,serif" font-size="14.00">num_samples = 112</text>
<text text-anchor="middle" x="1664.5" y="-156.8" font-family="Times,serif" font-size="14.00">entropy = 0.5916727785823275</text>
<text text-anchor="middle" x="1664.5" y="-141.8" font-family="Times,serif" font-size="14.00">gini = 0.24489795918367352</text>
<text text-anchor="middle" x="1664.5" y="-126.8" font-family="Times,serif" font-size="14.00">split by: stalk&#45;surface&#45;above&#45;ring</text>
</g>
<!-- 140423856018096&#45;&gt;140423856326928 -->
<g id="edge20" class="edge">
<title>140423856018096&#45;&gt;140423856326928</title>
<path fill="none" stroke="black" d="M1554.5,-252.82C1571.36,-238.83 1590.37,-223.04 1607.78,-208.59"/>
<polygon fill="black" stroke="black" points="1610.2,-211.13 1615.66,-202.05 1605.73,-205.74 1610.2,-211.13"/>
<text text-anchor="middle" x="1594.5" y="-223.8" font-family="Times,serif" font-size="14.00">n</text>
</g>
<!-- 140423855998144 -->
<g id="node24" class="node">
<title>140423855998144</title>
<polygon fill="#e41a1c" stroke="black" stroke-width="0.5" points="1808.5,-126.5 1960.5,-126.5 1960.5,-194.5 1808.5,-194.5 1808.5,-126.5"/>
<polygon fill="none" stroke="black" points="1960.5,-194.5 1808.5,-194.5 1808.5,-126.5 1960.5,-126.5 1960.5,-194.5"/>
<text text-anchor="middle" x="1884.5" y="-179.3" font-family="Times,serif" font-size="14.00">e:1.00</text>
<text text-anchor="middle" x="1884.5" y="-164.3" font-family="Times,serif" font-size="14.00">num_samples = 56</text>
<text text-anchor="middle" x="1884.5" y="-149.3" font-family="Times,serif" font-size="14.00">entropy = &#45;0.0</text>
<text text-anchor="middle" x="1884.5" y="-134.3" font-family="Times,serif" font-size="14.00">gini = 0.0</text>
</g>
<!-- 140423856018096&#45;&gt;140423855998144 -->
<g id="edge21" class="edge">
<title>140423856018096&#45;&gt;140423855998144</title>
<path fill="none" stroke="black" d="M1635.55,-255.01C1699.26,-235.75 1768.76,-214.03 1799.5,-202 1802.21,-200.94 1804.96,-199.83 1807.72,-198.68"/>
<polygon fill="black" stroke="black" points="1809.32,-201.8 1817.15,-194.66 1806.57,-195.37 1809.32,-201.8"/>
<text text-anchor="middle" x="1748.5" y="-223.8" font-family="Times,serif" font-size="14.00">p</text>
</g>
<!-- 140423855998048 -->
<g id="node25" class="node">
<title>140423855998048</title>
<polygon fill="#e41a1c" stroke="black" stroke-width="0.5" points="2012,-119 2249.79,-119 2249.79,-202 2012,-202 2012,-119"/>
<polygon fill="#377eb8" stroke="black" stroke-width="0.5" points="2249.79,-119 2263,-119 2263,-202 2249.79,-202 2249.79,-119"/>
<polygon fill="none" stroke="black" points="2263,-202 2012,-202 2012,-119 2263,-119 2263,-202"/>
<text text-anchor="middle" x="2137.5" y="-186.8" font-family="Times,serif" font-size="14.00">e:0.95 p:0.05</text>
<text text-anchor="middle" x="2137.5" y="-171.8" font-family="Times,serif" font-size="14.00">num_samples = 152</text>
<text text-anchor="middle" x="2137.5" y="-156.8" font-family="Times,serif" font-size="14.00">entropy = 0.2974722489192896</text>
<text text-anchor="middle" x="2137.5" y="-141.8" font-family="Times,serif" font-size="14.00">gini = 0.09972299168975085</text>
<text text-anchor="middle" x="2137.5" y="-126.8" font-family="Times,serif" font-size="14.00">split by: cap&#45;surface</text>
</g>
<!-- 140423856018096&#45;&gt;140423855998048 -->
<g id="edge26" class="edge">
<title>140423856018096&#45;&gt;140423855998048</title>
<path fill="none" stroke="black" d="M1635.59,-255.05C1638.58,-254.34 1641.56,-253.66 1644.5,-253 1653.42,-251.01 1960.54,-203.78 1969.5,-202 1979.98,-199.92 1990.79,-197.63 2001.64,-195.24"/>
<polygon fill="black" stroke="black" points="2002.61,-198.61 2011.61,-193.02 2001.08,-191.78 2002.61,-198.61"/>
<text text-anchor="middle" x="1860" y="-223.8" font-family="Times,serif" font-size="14.00">w</text>
</g>
<!-- 140423856088160 -->
<g id="node30" class="node">
<title>140423856088160</title>
<polygon fill="#377eb8" stroke="black" stroke-width="0.5" points="2281.5,-126.5 2433.5,-126.5 2433.5,-194.5 2281.5,-194.5 2281.5,-126.5"/>
<polygon fill="none" stroke="black" points="2433.5,-194.5 2281.5,-194.5 2281.5,-126.5 2433.5,-126.5 2433.5,-194.5"/>
<text text-anchor="middle" x="2357.5" y="-179.3" font-family="Times,serif" font-size="14.00">p:1.00</text>
<text text-anchor="middle" x="2357.5" y="-164.3" font-family="Times,serif" font-size="14.00">num_samples = 24</text>
<text text-anchor="middle" x="2357.5" y="-149.3" font-family="Times,serif" font-size="14.00">entropy = &#45;0.0</text>
<text text-anchor="middle" x="2357.5" y="-134.3" font-family="Times,serif" font-size="14.00">gini = 0.0</text>
</g>
<!-- 140423856018096&#45;&gt;140423856088160 -->
<g id="edge27" class="edge">
<title>140423856018096&#45;&gt;140423856088160</title>
<path fill="none" stroke="black" d="M1635.53,-254.74C1638.54,-254.13 1641.53,-253.54 1644.5,-253 1782.22,-227.73 2137.31,-238.44 2272.5,-202 2276.58,-200.9 2280.71,-199.61 2284.83,-198.17"/>
<polygon fill="black" stroke="black" points="2286.26,-201.38 2294.4,-194.6 2283.81,-194.82 2286.26,-201.38"/>
<text text-anchor="middle" x="2160" y="-223.8" font-family="Times,serif" font-size="14.00">y</text>
</g>
<!-- 140423856090800 -->
<g id="node20" class="node">
<title>140423856090800</title>
<polygon fill="#e41a1c" stroke="black" stroke-width="0.5" points="1231.5,0 1383.5,0 1383.5,-68 1231.5,-68 1231.5,0"/>
<polygon fill="none" stroke="black" points="1383.5,-68 1231.5,-68 1231.5,0 1383.5,0 1383.5,-68"/>
<text text-anchor="middle" x="1307.5" y="-52.8" font-family="Times,serif" font-size="14.00">e:1.00</text>
<text text-anchor="middle" x="1307.5" y="-37.8" font-family="Times,serif" font-size="14.00">num_samples = 12</text>
<text text-anchor="middle" x="1307.5" y="-22.8" font-family="Times,serif" font-size="14.00">entropy = &#45;0.0</text>
<text text-anchor="middle" x="1307.5" y="-7.8" font-family="Times,serif" font-size="14.00">gini = 0.0</text>
</g>
<!-- 140423856326928&#45;&gt;140423856090800 -->
<g id="edge16" class="edge">
<title>140423856326928&#45;&gt;140423856090800</title>
<path fill="none" stroke="black" d="M1539.85,-118.9C1496.06,-104.31 1446.39,-87.39 1393.46,-68.31"/>
<polygon fill="black" stroke="black" points="1394.49,-64.96 1383.89,-64.85 1392.11,-71.54 1394.49,-64.96"/>
<text text-anchor="middle" x="1485.5" y="-89.8" font-family="Times,serif" font-size="14.00">f</text>
</g>
<!-- 140423856090224 -->
<g id="node21" class="node">
<title>140423856090224</title>
<polygon fill="#377eb8" stroke="black" stroke-width="0.5" points="1401.5,0 1553.5,0 1553.5,-68 1401.5,-68 1401.5,0"/>
<polygon fill="none" stroke="black" points="1553.5,-68 1401.5,-68 1401.5,0 1553.5,0 1553.5,-68"/>
<text text-anchor="middle" x="1477.5" y="-52.8" font-family="Times,serif" font-size="14.00">p:1.00</text>
<text text-anchor="middle" x="1477.5" y="-37.8" font-family="Times,serif" font-size="14.00">num_samples = 16</text>
<text text-anchor="middle" x="1477.5" y="-22.8" font-family="Times,serif" font-size="14.00">entropy = &#45;0.0</text>
<text text-anchor="middle" x="1477.5" y="-7.8" font-family="Times,serif" font-size="14.00">gini = 0.0</text>
</g>
<!-- 140423856326928&#45;&gt;140423856090224 -->
<g id="edge17" class="edge">
<title>140423856326928&#45;&gt;140423856090224</title>
<path fill="none" stroke="black" d="M1603.53,-118.91C1581.7,-104.37 1557.17,-88.04 1535.59,-73.67"/>
<polygon fill="black" stroke="black" points="1537.43,-70.69 1527.16,-68.06 1533.55,-76.52 1537.43,-70.69"/>
<text text-anchor="middle" x="1581" y="-89.8" font-family="Times,serif" font-size="14.00">k</text>
</g>
<!-- 140423856087968 -->
<g id="node22" class="node">
<title>140423856087968</title>
<polygon fill="#e41a1c" stroke="black" stroke-width="0.5" points="1571.5,0 1723.5,0 1723.5,-68 1571.5,-68 1571.5,0"/>
<polygon fill="none" stroke="black" points="1723.5,-68 1571.5,-68 1571.5,0 1723.5,0 1723.5,-68"/>
<text text-anchor="middle" x="1647.5" y="-52.8" font-family="Times,serif" font-size="14.00">e:1.00</text>
<text text-anchor="middle" x="1647.5" y="-37.8" font-family="Times,serif" font-size="14.00">num_samples = 68</text>
<text text-anchor="middle" x="1647.5" y="-22.8" font-family="Times,serif" font-size="14.00">entropy = &#45;0.0</text>
<text text-anchor="middle" x="1647.5" y="-7.8" font-family="Times,serif" font-size="14.00">gini = 0.0</text>
</g>
<!-- 140423856326928&#45;&gt;140423856087968 -->
<g id="edge18" class="edge">
<title>140423856326928&#45;&gt;140423856087968</title>
<path fill="none" stroke="black" d="M1658.93,-118.73C1657.18,-105.86 1655.23,-91.6 1653.45,-78.54"/>
<polygon fill="black" stroke="black" points="1656.88,-77.81 1652.06,-68.38 1649.94,-78.76 1656.88,-77.81"/>
<text text-anchor="middle" x="1660.5" y="-89.8" font-family="Times,serif" font-size="14.00">s</text>
</g>
<!-- 140423856087344 -->
<g id="node23" class="node">
<title>140423856087344</title>
<polygon fill="#e41a1c" stroke="black" stroke-width="0.5" points="1741.5,0 1893.5,0 1893.5,-68 1741.5,-68 1741.5,0"/>
<polygon fill="none" stroke="black" points="1893.5,-68 1741.5,-68 1741.5,0 1893.5,0 1893.5,-68"/>
<text text-anchor="middle" x="1817.5" y="-52.8" font-family="Times,serif" font-size="14.00">e:1.00</text>
<text text-anchor="middle" x="1817.5" y="-37.8" font-family="Times,serif" font-size="14.00">num_samples = 16</text>
<text text-anchor="middle" x="1817.5" y="-22.8" font-family="Times,serif" font-size="14.00">entropy = &#45;0.0</text>
<text text-anchor="middle" x="1817.5" y="-7.8" font-family="Times,serif" font-size="14.00">gini = 0.0</text>
</g>
<!-- 140423856326928&#45;&gt;140423856087344 -->
<g id="edge19" class="edge">
<title>140423856326928&#45;&gt;140423856087344</title>
<path fill="none" stroke="black" d="M1714.6,-118.73C1731.98,-104.59 1751.44,-88.76 1768.71,-74.7"/>
<polygon fill="black" stroke="black" points="1770.93,-77.41 1776.48,-68.38 1766.51,-71.98 1770.93,-77.41"/>
<text text-anchor="middle" x="1759" y="-89.8" font-family="Times,serif" font-size="14.00">y</text>
</g>
<!-- 140423856103584 -->
<g id="node26" class="node">
<title>140423856103584</title>
<polygon fill="#e41a1c" stroke="black" stroke-width="0.5" points="1911.5,0 2063.5,0 2063.5,-68 1911.5,-68 1911.5,0"/>
<polygon fill="none" stroke="black" points="2063.5,-68 1911.5,-68 1911.5,0 2063.5,0 2063.5,-68"/>
<text text-anchor="middle" x="1987.5" y="-52.8" font-family="Times,serif" font-size="14.00">e:1.00</text>
<text text-anchor="middle" x="1987.5" y="-37.8" font-family="Times,serif" font-size="14.00">num_samples = 72</text>
<text text-anchor="middle" x="1987.5" y="-22.8" font-family="Times,serif" font-size="14.00">entropy = &#45;0.0</text>
<text text-anchor="middle" x="1987.5" y="-7.8" font-family="Times,serif" font-size="14.00">gini = 0.0</text>
</g>
<!-- 140423855998048&#45;&gt;140423856103584 -->
<g id="edge22" class="edge">
<title>140423855998048&#45;&gt;140423856103584</title>
<path fill="none" stroke="black" d="M2088.38,-118.73C2071.5,-104.72 2052.61,-89.04 2035.79,-75.08"/>
<polygon fill="black" stroke="black" points="2037.65,-72.07 2027.72,-68.38 2033.18,-77.46 2037.65,-72.07"/>
<text text-anchor="middle" x="2069.5" y="-89.8" font-family="Times,serif" font-size="14.00">f</text>
</g>
<!-- 140423856103920 -->
<g id="node27" class="node">
<title>140423856103920</title>
<polygon fill="#377eb8" stroke="black" stroke-width="0.5" points="2082,0 2225,0 2225,-68 2082,-68 2082,0"/>
<polygon fill="none" stroke="black" points="2225,-68 2082,-68 2082,0 2225,0 2225,-68"/>
<text text-anchor="middle" x="2153.5" y="-52.8" font-family="Times,serif" font-size="14.00">p:1.00</text>
<text text-anchor="middle" x="2153.5" y="-37.8" font-family="Times,serif" font-size="14.00">num_samples = 4</text>
<text text-anchor="middle" x="2153.5" y="-22.8" font-family="Times,serif" font-size="14.00">entropy = &#45;0.0</text>
<text text-anchor="middle" x="2153.5" y="-7.8" font-family="Times,serif" font-size="14.00">gini = 0.0</text>
</g>
<!-- 140423855998048&#45;&gt;140423856103920 -->
<g id="edge23" class="edge">
<title>140423855998048&#45;&gt;140423856103920</title>
<path fill="none" stroke="black" d="M2142.74,-118.73C2144.39,-105.86 2146.23,-91.6 2147.9,-78.54"/>
<polygon fill="black" stroke="black" points="2151.41,-78.74 2149.21,-68.38 2144.46,-77.85 2151.41,-78.74"/>
<text text-anchor="middle" x="2151.5" y="-89.8" font-family="Times,serif" font-size="14.00">g</text>
</g>
<!-- 140423856106704 -->
<g id="node28" class="node">
<title>140423856106704</title>
<polygon fill="#e41a1c" stroke="black" stroke-width="0.5" points="2243.5,0 2395.5,0 2395.5,-68 2243.5,-68 2243.5,0"/>
<polygon fill="none" stroke="black" points="2395.5,-68 2243.5,-68 2243.5,0 2395.5,0 2395.5,-68"/>
<text text-anchor="middle" x="2319.5" y="-52.8" font-family="Times,serif" font-size="14.00">e:1.00</text>
<text text-anchor="middle" x="2319.5" y="-37.8" font-family="Times,serif" font-size="14.00">num_samples = 72</text>
<text text-anchor="middle" x="2319.5" y="-22.8" font-family="Times,serif" font-size="14.00">entropy = &#45;0.0</text>
<text text-anchor="middle" x="2319.5" y="-7.8" font-family="Times,serif" font-size="14.00">gini = 0.0</text>
</g>
<!-- 140423855998048&#45;&gt;140423856106704 -->
<g id="edge24" class="edge">
<title>140423855998048&#45;&gt;140423856106704</title>
<path fill="none" stroke="black" d="M2196.84,-118.91C2217.99,-104.44 2241.75,-88.18 2262.69,-73.86"/>
<polygon fill="black" stroke="black" points="2264.89,-76.6 2271.16,-68.06 2260.93,-70.82 2264.89,-76.6"/>
<text text-anchor="middle" x="2248.5" y="-89.8" font-family="Times,serif" font-size="14.00">s</text>
</g>
<!-- 140423856107040 -->
<g id="node29" class="node">
<title>140423856107040</title>
<polygon fill="#377eb8" stroke="black" stroke-width="0.5" points="2414,0 2557,0 2557,-68 2414,-68 2414,0"/>
<polygon fill="none" stroke="black" points="2557,-68 2414,-68 2414,0 2557,0 2557,-68"/>
<text text-anchor="middle" x="2485.5" y="-52.8" font-family="Times,serif" font-size="14.00">p:1.00</text>
<text text-anchor="middle" x="2485.5" y="-37.8" font-family="Times,serif" font-size="14.00">num_samples = 4</text>
<text text-anchor="middle" x="2485.5" y="-22.8" font-family="Times,serif" font-size="14.00">entropy = &#45;0.0</text>
<text text-anchor="middle" x="2485.5" y="-7.8" font-family="Times,serif" font-size="14.00">gini = 0.0</text>
</g>
<!-- 140423855998048&#45;&gt;140423856107040 -->
<g id="edge25" class="edge">
<title>140423855998048&#45;&gt;140423856107040</title>
<path fill="none" stroke="black" d="M2260.64,-118.93C2303.49,-104.41 2351.97,-87.53 2404.16,-68.07"/>
<polygon fill="black" stroke="black" points="2405.46,-71.32 2413.59,-64.54 2403,-64.77 2405.46,-71.32"/>
<text text-anchor="middle" x="2358" y="-89.8" font-family="Times,serif" font-size="14.00">y</text>
</g>
</g>
</svg>
